<svg width="50" height="51" viewBox="0 0 50 51" fill="none" xmlns="http://www.w3.org/2000/svg">
<rect y="0.5" width="50" height="50" rx="10" fill="#474747"/>
<path d="M40.9374 24.3809C40.9374 20.2187 39.2612 16.2271 36.2775 13.284C33.2938 10.3409 29.247 8.6875 25.0274 8.6875C20.8078 8.6875 16.7611 10.3409 13.7774 13.284C10.7937 16.2271 9.11746 20.2187 9.11746 24.3809L16.7744 24.3809C16.7744 22.2218 17.6439 20.1512 19.1917 18.6245C20.7394 17.0979 22.8386 16.2402 25.0274 16.2402C27.2163 16.2402 29.3155 17.0979 30.8632 18.6245C32.4109 20.1512 33.2804 22.2218 33.2804 24.3809H40.9374Z" fill="#CF4949"/>
<path d="M34.9415 17.8529C33.5853 16.5681 31.986 15.5592 30.2348 14.8839C28.4837 14.2085 26.615 13.8799 24.7354 13.9169C22.8558 13.9538 21.0022 14.3556 19.2804 15.0992C17.5586 15.8428 16.0023 16.9137 14.7003 18.2508L19.6704 22.9594C20.3458 22.2658 21.1531 21.7103 22.0463 21.3245C22.9394 20.9388 23.901 20.7304 24.8759 20.7113C25.8509 20.6921 26.8203 20.8625 27.7287 21.2129C28.6371 21.5632 29.4667 22.0865 30.1702 22.753L34.9415 17.8529Z" fill="#CF4949"/>
<path d="M13.7809 36.321C15.2624 37.7743 17.0195 38.9255 18.952 39.7089C20.8844 40.4923 22.9544 40.8926 25.0438 40.887C27.1331 40.8813 29.2008 40.4698 31.1289 39.6759C33.057 38.882 34.8076 37.7213 36.2809 36.26L28.1922 28.3252C27.7753 28.7387 27.2799 29.0671 26.7343 29.2918C26.1887 29.5164 25.6036 29.6329 25.0124 29.6345C24.4212 29.6361 23.8354 29.5228 23.2886 29.3011C22.7417 29.0794 22.2445 28.7537 21.8253 28.3424L13.7809 36.321Z" fill="#30A0DF"/>
</svg>
