<svg width="743" height="531" viewBox="0 0 743 531" fill="none" xmlns="http://www.w3.org/2000/svg">
<rect x="0.280029" y="0.52124" width="741.863" height="529.5" rx="9.75" fill="white" stroke="#CBCBCB" stroke-width="0.5"/>
<path d="M342.517 262.5L358.391 243.135C359.034 242.351 359.797 241.728 360.637 241.304C361.477 240.88 362.377 240.661 363.286 240.661C364.195 240.661 365.095 240.88 365.935 241.304C366.775 241.728 367.539 242.351 368.181 243.135L384.055 262.5M379.44 256.87L383.775 251.581C384.418 250.796 385.181 250.174 386.021 249.75C386.861 249.325 387.762 249.107 388.671 249.107C389.58 249.107 390.48 249.325 391.32 249.75C392.16 250.174 392.923 250.796 393.566 251.581L402.517 262.5M347.132 276.576H397.901C399.126 276.576 400.299 275.983 401.165 274.927C402.031 273.871 402.517 272.439 402.517 270.946V225.902C402.517 224.408 402.031 222.976 401.165 221.92C400.299 220.864 399.126 220.271 397.901 220.271H347.132C345.908 220.271 344.734 220.864 343.869 221.92C343.003 222.976 342.517 224.408 342.517 225.902V270.946C342.517 272.439 343.003 273.871 343.869 274.927C344.734 275.983 345.908 276.576 347.132 276.576ZM379.44 234.348H379.465V234.378H379.44V234.348ZM380.594 234.348C380.594 234.721 380.472 235.079 380.256 235.343C380.039 235.607 379.746 235.755 379.44 235.755C379.134 235.755 378.84 235.607 378.624 235.343C378.408 235.079 378.286 234.721 378.286 234.348C378.286 233.974 378.408 233.616 378.624 233.352C378.84 233.088 379.134 232.94 379.44 232.94C379.746 232.94 380.039 233.088 380.256 233.352C380.472 233.616 380.594 233.974 380.594 234.348Z" stroke="#C2C2C2" stroke-width="1.5" stroke-linecap="round" stroke-linejoin="round"/>
</svg>
